<?xml version="1.0" encoding="UTF-8" standalone="no"?>
<svg
   xmlns:dc="http://purl.org/dc/elements/1.1/"
   xmlns:cc="http://creativecommons.org/ns#"
   xmlns:rdf="http://www.w3.org/1999/02/22-rdf-syntax-ns#"
   xmlns:svg="http://www.w3.org/2000/svg"
   xmlns="http://www.w3.org/2000/svg"
   id="svg12864"
   version="1.1"
   viewBox="0 0 163.74816 45.259071"
   height="45.259071mm"
   width="163.74815mm">
  <defs
     id="defs12858" />
  <metadata
     id="metadata12861">
    <rdf:RDF>
      <cc:Work
         rdf:about="">
        <dc:format>image/svg+xml</dc:format>
        <dc:type
           rdf:resource="http://purl.org/dc/dcmitype/StillImage" />
        <dc:title></dc:title>
      </cc:Work>
    </rdf:RDF>
  </metadata>
  <g
     transform="translate(-10.277779,-11.52826)"
     id="layer1">
    <g
       transform="matrix(2.3070708,0,0,2.3070708,-4.9262381,-431.19365)"
       id="g7297">
      <path
         id="rect82-4-1-1-7-1-4-4-9-3-1-4"
         d="m 49.123734,201.73917 h 7.421483 v 4.40994 h -7.421483 z"
         style="display:inline;opacity:1;vector-effect:none;fill:#eeffaa;fill-opacity:1;stroke-width:0.25648016;stroke-linecap:butt;stroke-linejoin:miter;stroke-miterlimit:4;stroke-dasharray:none;stroke-dashoffset:0;stroke-opacity:1" />
      <path
         id="rect82-4-1-1-7-1-4-4-9-3-1-5"
         d="m 43.78616,201.9754 h 3.169251 v 4.40995 H 43.78616 Z"
         style="display:inline;opacity:1;vector-effect:none;fill:#eeffaa;fill-opacity:1;stroke-width:0.16760491;stroke-linecap:butt;stroke-linejoin:miter;stroke-miterlimit:4;stroke-dasharray:none;stroke-dashoffset:0;stroke-opacity:1" />
      <path
         id="rect82-4-1-1-7-1-4-4-9-3-1-4-5"
         d="m 36.231041,206.51898 h 7.421483 v 4.40995 h -7.421483 z"
         style="display:inline;opacity:1;vector-effect:none;fill:#eeffaa;fill-opacity:1;stroke-width:0.25648016;stroke-linecap:butt;stroke-linejoin:miter;stroke-miterlimit:4;stroke-dasharray:none;stroke-dashoffset:0;stroke-opacity:1" />
      <path
         id="path5524-0-3-58"
         d="m 34.663807,204.07294 a 3.5580254,2.8898516 0 0 1 -3.558025,2.88985 3.5580254,2.8898516 0 0 1 -3.558026,-2.88985 3.5580254,2.8898516 0 0 1 3.558026,-2.88985 3.5580254,2.8898516 0 0 1 3.558025,2.88985 z"
         style="display:inline;opacity:1;vector-effect:none;fill:#eeffaa;fill-opacity:1;stroke:none;stroke-width:0.36042199;stroke-linecap:butt;stroke-linejoin:miter;stroke-miterlimit:4;stroke-dasharray:none;stroke-dashoffset:0;stroke-opacity:1" />
      <g
         id="text13-2-1-87-92-2-4-44-3-9-41-6-1-2"
         style="font-style:normal;font-variant:normal;font-weight:normal;font-stretch:normal;font-size:4.18464994px;line-height:1.25;font-family:'DejaVu Sans';-inkscape-font-specification:'DejaVu Sans, Normal';font-variant-ligatures:normal;font-variant-caps:normal;font-variant-numeric:normal;font-feature-settings:normal;text-align:start;letter-spacing:0px;word-spacing:0px;writing-mode:lr-tb;text-anchor:start;display:inline;opacity:0.98999999;fill:#000000;fill-opacity:1;stroke:none;stroke-width:0.10461817"
         aria-label="(λx.λy.y x) foo λy.y foo">
        <path
           id="path5561"
           style="font-style:normal;font-variant:normal;font-weight:normal;font-stretch:normal;font-size:4.18464994px;font-family:'DejaVu Sans';-inkscape-font-specification:'DejaVu Sans, Normal';font-variant-ligatures:normal;font-variant-caps:normal;font-variant-numeric:normal;font-feature-settings:normal;text-align:start;writing-mode:lr-tb;text-anchor:start;stroke-width:0.10461817"
           d="m 28.118957,202.23887 q -0.2738,0.46996 -0.406614,0.9297 -0.132814,0.45974 -0.132814,0.93174 0,0.47199 0.132814,0.93582 0.134857,0.46178 0.406614,0.9297 h -0.326926 q -0.306493,-0.48018 -0.459739,-0.944 -0.151203,-0.46383 -0.151203,-0.92152 0,-0.45566 0.151203,-0.91744 0.151203,-0.46178 0.459739,-0.944 z" />
        <path
           id="path5563"
           style="font-style:normal;font-variant:normal;font-weight:normal;font-stretch:normal;font-size:4.18464994px;font-family:'DejaVu Sans';-inkscape-font-specification:'DejaVu Sans, Normal';font-variant-ligatures:normal;font-variant-caps:normal;font-variant-numeric:normal;font-feature-settings:normal;text-align:start;writing-mode:lr-tb;text-anchor:start;stroke-width:0.10461817"
           d="m 29.751543,202.59236 1.056378,2.82178 h -0.39844 l -0.641592,-1.69184 -0.788709,1.69184 h -0.39844 l 1.003253,-2.19449 -0.151203,-0.40457 q -0.09604,-0.25746 -0.314666,-0.25746 h -0.196156 v -0.32283 l 0.239065,0.004 q 0.461783,0.006 0.59051,0.35349 z" />
        <path
           id="path5565"
           style="font-style:normal;font-variant:normal;font-weight:normal;font-stretch:normal;font-size:4.18464994px;font-family:'DejaVu Sans';-inkscape-font-specification:'DejaVu Sans, Normal';font-variant-ligatures:normal;font-variant-caps:normal;font-variant-numeric:normal;font-feature-settings:normal;text-align:start;writing-mode:lr-tb;text-anchor:start;stroke-width:0.10461817"
           d="m 33.229215,203.12566 -0.82753,1.11359 0.870439,1.17489 h -0.443393 l -0.666111,-0.89905 -0.666111,0.89905 h -0.443393 l 0.888829,-1.19737 -0.813228,-1.09111 h 0.443393 l 0.606856,0.81527 0.606856,-0.81527 z" />
        <path
           id="path5567"
           style="font-style:normal;font-variant:normal;font-weight:normal;font-stretch:normal;font-size:4.18464994px;font-family:'DejaVu Sans';-inkscape-font-specification:'DejaVu Sans, Normal';font-variant-ligatures:normal;font-variant-caps:normal;font-variant-numeric:normal;font-feature-settings:normal;text-align:start;writing-mode:lr-tb;text-anchor:start;stroke-width:0.10461817"
           d="m 33.856504,204.89514 h 0.431134 v 0.519 h -0.431134 z" />
        <path
           id="path5569"
           style="font-style:normal;font-variant:normal;font-weight:normal;font-stretch:normal;font-size:4.18464994px;font-family:'DejaVu Sans';-inkscape-font-specification:'DejaVu Sans, Normal';font-variant-ligatures:normal;font-variant-caps:normal;font-variant-numeric:normal;font-feature-settings:normal;text-align:start;writing-mode:lr-tb;text-anchor:start;stroke-width:0.10461817"
           d="m 36.036691,202.59236 1.056378,2.82178 h -0.39844 l -0.641592,-1.69184 -0.788709,1.69184 h -0.39844 l 1.003253,-2.19449 -0.151203,-0.40457 q -0.09603,-0.25746 -0.314666,-0.25746 h -0.196156 v -0.32283 l 0.239065,0.004 q 0.461783,0.006 0.59051,0.35349 z" />
        <path
           id="path5571"
           style="font-style:normal;font-variant:normal;font-weight:normal;font-stretch:normal;font-size:4.18464994px;font-family:'DejaVu Sans';-inkscape-font-specification:'DejaVu Sans, Normal';font-variant-ligatures:normal;font-variant-caps:normal;font-variant-numeric:normal;font-feature-settings:normal;text-align:start;writing-mode:lr-tb;text-anchor:start;stroke-width:0.10461817"
           d="m 38.564236,205.62664 q -0.159376,0.40866 -0.310579,0.5333 -0.151204,0.12464 -0.404571,0.12464 h -0.300363 v -0.31467 h 0.220675 q 0.155289,0 0.241108,-0.0736 0.08582,-0.0736 0.190025,-0.34735 l 0.06743,-0.17164 -0.925609,-2.2517 h 0.398441 l 0.71515,1.78992 0.71515,-1.78992 h 0.398441 z" />
        <path
           id="path5573"
           style="font-style:normal;font-variant:normal;font-weight:normal;font-stretch:normal;font-size:4.18464994px;font-family:'DejaVu Sans';-inkscape-font-specification:'DejaVu Sans, Normal';font-variant-ligatures:normal;font-variant-caps:normal;font-variant-numeric:normal;font-feature-settings:normal;text-align:start;writing-mode:lr-tb;text-anchor:start;stroke-width:0.10461817"
           d="m 39.545013,204.89514 h 0.431133 v 0.519 h -0.431133 z" />
        <path
           id="path5575"
           style="font-style:normal;font-variant:normal;font-weight:normal;font-stretch:normal;font-size:4.18464994px;font-family:'DejaVu Sans';-inkscape-font-specification:'DejaVu Sans, Normal';font-variant-ligatures:normal;font-variant-caps:normal;font-variant-numeric:normal;font-feature-settings:normal;text-align:start;writing-mode:lr-tb;text-anchor:start;stroke-width:0.10461817"
           d="m 41.776282,205.62664 q -0.159377,0.40866 -0.31058,0.5333 -0.151203,0.12464 -0.40457,0.12464 h -0.300363 v -0.31467 h 0.220674 q 0.15529,0 0.241108,-0.0736 0.08582,-0.0736 0.190026,-0.34735 l 0.06743,-0.17164 -0.925608,-2.2517 h 0.39844 l 0.715151,1.78992 0.71515,-1.78992 h 0.39844 z" />
        <path
           id="path5577"
           style="font-style:normal;font-variant:normal;font-weight:normal;font-stretch:normal;font-size:4.18464994px;font-family:'DejaVu Sans';-inkscape-font-specification:'DejaVu Sans, Normal';font-variant-ligatures:normal;font-variant-caps:normal;font-variant-numeric:normal;font-feature-settings:normal;text-align:start;writing-mode:lr-tb;text-anchor:start;stroke-width:0.10461817"
           d="m 46.535095,203.12566 -0.827531,1.11359 0.87044,1.17489 h -0.443393 l -0.666111,-0.89905 -0.666112,0.89905 h -0.443393 l 0.88883,-1.19737 -0.813228,-1.09111 h 0.443393 l 0.606856,0.81527 0.606856,-0.81527 z" />
        <path
           id="path5579"
           style="font-style:normal;font-variant:normal;font-weight:normal;font-stretch:normal;font-size:4.18464994px;font-family:'DejaVu Sans';-inkscape-font-specification:'DejaVu Sans, Normal';font-variant-ligatures:normal;font-variant-caps:normal;font-variant-numeric:normal;font-feature-settings:normal;text-align:start;writing-mode:lr-tb;text-anchor:start;stroke-width:0.10461817"
           d="m 47.050004,202.23887 h 0.326925 q 0.306493,0.48222 0.457697,0.944 0.153246,0.46178 0.153246,0.91744 0,0.45769 -0.153246,0.92152 -0.151204,0.46382 -0.457697,0.944 h -0.326925 q 0.271757,-0.46792 0.40457,-0.9297 0.134857,-0.46383 0.134857,-0.93582 0,-0.472 -0.134857,-0.93174 -0.132813,-0.45974 -0.40457,-0.9297 z" />
        <path
           id="path5581"
           style="font-style:normal;font-variant:normal;font-weight:normal;font-stretch:normal;font-size:4.18464994px;font-family:'DejaVu Sans';-inkscape-font-specification:'DejaVu Sans, Normal';font-variant-ligatures:normal;font-variant-caps:normal;font-variant-numeric:normal;font-feature-settings:normal;text-align:start;writing-mode:lr-tb;text-anchor:start;stroke-width:0.10461817"
           d="m 51.234653,202.23479 v 0.31262 h -0.359619 q -0.202285,0 -0.281973,0.0817 -0.07764,0.0817 -0.07764,0.29423 v 0.20229 h 0.619115 v 0.29219 h -0.619115 v 1.99629 h -0.378008 v -1.99629 H 49.77779 v -0.29219 h 0.359618 v -0.15938 q 0,-0.38209 0.177766,-0.55577 0.177766,-0.17572 0.563947,-0.17572 z" />
        <path
           id="path5583"
           style="font-style:normal;font-variant:normal;font-weight:normal;font-stretch:normal;font-size:4.18464994px;font-family:'DejaVu Sans';-inkscape-font-specification:'DejaVu Sans, Normal';font-variant-ligatures:normal;font-variant-caps:normal;font-variant-numeric:normal;font-feature-settings:normal;text-align:start;writing-mode:lr-tb;text-anchor:start;stroke-width:0.10461817"
           d="m 52.434062,203.38924 q -0.302406,0 -0.478129,0.23702 -0.175722,0.23498 -0.175722,0.64568 0,0.4107 0.173679,0.64772 0.175722,0.23498 0.480172,0.23498 0.300363,0 0.476086,-0.23702 0.175722,-0.23702 0.175722,-0.64568 0,-0.40661 -0.175722,-0.64363 -0.175723,-0.23907 -0.476086,-0.23907 z m 0,-0.31875 q 0.490389,0 0.770319,0.31875 0.27993,0.31875 0.27993,0.8827 0,0.56191 -0.27993,0.8827 -0.27993,0.31875 -0.770319,0.31875 -0.492432,0 -0.772362,-0.31875 -0.277887,-0.32079 -0.277887,-0.8827 0,-0.56395 0.277887,-0.8827 0.27993,-0.31875 0.772362,-0.31875 z" />
        <path
           id="path5585"
           style="font-style:normal;font-variant:normal;font-weight:normal;font-stretch:normal;font-size:4.18464994px;font-family:'DejaVu Sans';-inkscape-font-specification:'DejaVu Sans, Normal';font-variant-ligatures:normal;font-variant-caps:normal;font-variant-numeric:normal;font-feature-settings:normal;text-align:start;writing-mode:lr-tb;text-anchor:start;stroke-width:0.10461817"
           d="m 54.992257,203.38924 q -0.302406,0 -0.478129,0.23702 -0.175722,0.23498 -0.175722,0.64568 0,0.4107 0.173679,0.64772 0.175723,0.23498 0.480172,0.23498 0.300363,0 0.476086,-0.23702 0.175722,-0.23702 0.175722,-0.64568 0,-0.40661 -0.175722,-0.64363 -0.175723,-0.23907 -0.476086,-0.23907 z m 0,-0.31875 q 0.490389,0 0.770319,0.31875 0.27993,0.31875 0.27993,0.8827 0,0.56191 -0.27993,0.8827 -0.27993,0.31875 -0.770319,0.31875 -0.492432,0 -0.772362,-0.31875 -0.277887,-0.32079 -0.277887,-0.8827 0,-0.56395 0.277887,-0.8827 0.27993,-0.31875 0.772362,-0.31875 z" />
        <path
           id="path5587"
           style="font-style:normal;font-variant:normal;font-weight:normal;font-stretch:normal;font-size:4.18464994px;font-family:'DejaVu Sans';-inkscape-font-specification:'DejaVu Sans, Normal';font-variant-ligatures:normal;font-variant-caps:normal;font-variant-numeric:normal;font-feature-settings:normal;text-align:start;writing-mode:lr-tb;text-anchor:start;stroke-width:0.10461817"
           d="m 28.116914,207.82317 1.056379,2.82178 h -0.398441 l -0.641592,-1.69184 -0.788708,1.69184 h -0.398441 l 1.003253,-2.19449 -0.151203,-0.40457 q -0.09603,-0.25745 -0.314666,-0.25745 h -0.196156 v -0.32284 l 0.239065,0.004 q 0.461783,0.006 0.59051,0.35349 z" />
        <path
           id="path5589"
           style="font-style:normal;font-variant:normal;font-weight:normal;font-stretch:normal;font-size:4.18464994px;font-family:'DejaVu Sans';-inkscape-font-specification:'DejaVu Sans, Normal';font-variant-ligatures:normal;font-variant-caps:normal;font-variant-numeric:normal;font-feature-settings:normal;text-align:start;writing-mode:lr-tb;text-anchor:start;stroke-width:0.10461817"
           d="m 30.644459,210.85745 q -0.159377,0.40866 -0.31058,0.5333 -0.151203,0.12464 -0.40457,0.12464 h -0.300364 v -0.31466 h 0.220675 q 0.15529,0 0.241108,-0.0736 0.08582,-0.0736 0.190026,-0.34736 l 0.06743,-0.17164 -0.925608,-2.2517 h 0.39844 l 0.71515,1.78992 0.715151,-1.78992 h 0.39844 z" />
        <path
           id="path5591"
           style="font-style:normal;font-variant:normal;font-weight:normal;font-stretch:normal;font-size:4.18464994px;font-family:'DejaVu Sans';-inkscape-font-specification:'DejaVu Sans, Normal';font-variant-ligatures:normal;font-variant-caps:normal;font-variant-numeric:normal;font-feature-settings:normal;text-align:start;writing-mode:lr-tb;text-anchor:start;stroke-width:0.10461817"
           d="m 31.625236,210.12596 h 0.431133 v 0.51899 h -0.431133 z" />
        <path
           id="path5593"
           style="font-style:normal;font-variant:normal;font-weight:normal;font-stretch:normal;font-size:4.18464994px;font-family:'DejaVu Sans';-inkscape-font-specification:'DejaVu Sans, Normal';font-variant-ligatures:normal;font-variant-caps:normal;font-variant-numeric:normal;font-feature-settings:normal;text-align:start;writing-mode:lr-tb;text-anchor:start;stroke-width:0.10461817"
           d="m 33.856504,210.85745 q -0.159376,0.40866 -0.310579,0.5333 -0.151203,0.12464 -0.404571,0.12464 h -0.300363 v -0.31466 h 0.220675 q 0.15529,0 0.241108,-0.0736 0.08582,-0.0736 0.190025,-0.34736 l 0.06743,-0.17164 -0.925609,-2.2517 h 0.398441 l 0.71515,1.78992 0.71515,-1.78992 h 0.398441 z" />
        <path
           id="path5595"
           style="font-style:normal;font-variant:normal;font-weight:normal;font-stretch:normal;font-size:4.18464994px;font-family:'DejaVu Sans';-inkscape-font-specification:'DejaVu Sans, Normal';font-variant-ligatures:normal;font-variant-caps:normal;font-variant-numeric:normal;font-feature-settings:normal;text-align:start;writing-mode:lr-tb;text-anchor:start;stroke-width:0.10461817"
           d="m 37.871562,207.4656 v 0.31262 h -0.359618 q -0.202286,0 -0.281974,0.0817 -0.07765,0.0817 -0.07765,0.29424 v 0.20228 h 0.619116 v 0.29219 H 37.15232 v 1.99629 h -0.378008 v -1.99629 h -0.359618 v -0.29219 h 0.359618 v -0.15938 q 0,-0.38209 0.177766,-0.55577 0.177766,-0.17572 0.563947,-0.17572 z" />
        <path
           id="path5597"
           style="font-style:normal;font-variant:normal;font-weight:normal;font-stretch:normal;font-size:4.18464994px;font-family:'DejaVu Sans';-inkscape-font-specification:'DejaVu Sans, Normal';font-variant-ligatures:normal;font-variant-caps:normal;font-variant-numeric:normal;font-feature-settings:normal;text-align:start;writing-mode:lr-tb;text-anchor:start;stroke-width:0.10461817"
           d="m 39.070971,208.62005 q -0.302407,0 -0.478129,0.23703 -0.175723,0.23497 -0.175723,0.64567 0,0.4107 0.173679,0.64773 0.175723,0.23497 0.480173,0.23497 0.300363,0 0.476085,-0.23702 0.175723,-0.23702 0.175723,-0.64568 0,-0.40661 -0.175723,-0.64363 -0.175722,-0.23907 -0.476085,-0.23907 z m 0,-0.31875 q 0.490388,0 0.770318,0.31875 0.279931,0.31876 0.279931,0.8827 0,0.56191 -0.279931,0.8827 -0.27993,0.31876 -0.770318,0.31876 -0.492432,0 -0.772363,-0.31876 -0.277886,-0.32079 -0.277886,-0.8827 0,-0.56394 0.277886,-0.8827 0.279931,-0.31875 0.772363,-0.31875 z" />
        <path
           id="path5599"
           style="font-style:normal;font-variant:normal;font-weight:normal;font-stretch:normal;font-size:4.18464994px;font-family:'DejaVu Sans';-inkscape-font-specification:'DejaVu Sans, Normal';font-variant-ligatures:normal;font-variant-caps:normal;font-variant-numeric:normal;font-feature-settings:normal;text-align:start;writing-mode:lr-tb;text-anchor:start;stroke-width:0.10461817"
           d="m 41.629165,208.62005 q -0.302407,0 -0.478129,0.23703 -0.175723,0.23497 -0.175723,0.64567 0,0.4107 0.17368,0.64773 0.175722,0.23497 0.480172,0.23497 0.300363,0 0.476085,-0.23702 0.175723,-0.23702 0.175723,-0.64568 0,-0.40661 -0.175723,-0.64363 -0.175722,-0.23907 -0.476085,-0.23907 z m 0,-0.31875 q 0.490388,0 0.770319,0.31875 0.27993,0.31876 0.27993,0.8827 0,0.56191 -0.27993,0.8827 -0.279931,0.31876 -0.770319,0.31876 -0.492432,0 -0.772362,-0.31876 -0.277887,-0.32079 -0.277887,-0.8827 0,-0.56394 0.277887,-0.8827 0.27993,-0.31875 0.772362,-0.31875 z" />
      </g>
      <g
         id="text13-2-1-87-92-2-4-44-3-9-41-6-1-6"
         style="font-style:normal;font-variant:normal;font-weight:normal;font-stretch:normal;font-size:4.18464994px;line-height:1.25;font-family:'DejaVu Sans';-inkscape-font-specification:'DejaVu Sans, Normal';font-variant-ligatures:normal;font-variant-caps:normal;font-variant-numeric:normal;font-feature-settings:normal;text-align:start;letter-spacing:0px;word-spacing:0px;writing-mode:lr-tb;text-anchor:start;display:inline;opacity:0.98999999;fill:#000000;fill-opacity:1;stroke:none;stroke-width:0.10461817"
         transform="rotate(-13.591563)"
         aria-label="remove this">
        <path
           id="path5602"
           style="font-style:normal;font-variant:normal;font-weight:normal;font-stretch:normal;font-size:4.18464994px;font-family:'DejaVu Sans';-inkscape-font-specification:'DejaVu Sans, Normal';font-variant-ligatures:normal;font-variant-caps:normal;font-variant-numeric:normal;font-feature-settings:normal;text-align:start;writing-mode:lr-tb;text-anchor:start;stroke-width:0.10461817"
           d="m -38.763699,194.27221 q -0.06334,-0.0368 -0.138944,-0.0531 -0.07356,-0.0184 -0.163463,-0.0184 -0.318752,0 -0.490388,0.20842 -0.169593,0.20637 -0.169593,0.59459 v 1.20554 h -0.378008 v -2.28848 h 0.378008 v 0.35554 q 0.118511,-0.20842 0.308536,-0.30854 0.190026,-0.10217 0.461783,-0.10217 0.03882,0 0.08582,0.006 0.047,0.004 0.104207,0.0143 z" />
        <path
           id="path5604"
           style="font-style:normal;font-variant:normal;font-weight:normal;font-stretch:normal;font-size:4.18464994px;font-family:'DejaVu Sans';-inkscape-font-specification:'DejaVu Sans, Normal';font-variant-ligatures:normal;font-variant-caps:normal;font-variant-numeric:normal;font-feature-settings:normal;text-align:start;writing-mode:lr-tb;text-anchor:start;stroke-width:0.10461817"
           d="m -36.497695,194.97101 v 0.1839 h -1.72862 q 0.02452,0.38822 0.232935,0.59255 0.210458,0.20229 0.584379,0.20229 0.216589,0 0.418874,-0.0531 0.204329,-0.0531 0.404571,-0.15938 v 0.35554 q -0.202286,0.0858 -0.414787,0.13077 -0.212502,0.045 -0.431134,0.045 -0.5476,0 -0.868396,-0.31875 -0.318753,-0.31876 -0.318753,-0.86227 0,-0.5619 0.302406,-0.89087 0.30445,-0.33102 0.819358,-0.33102 0.461783,0 0.729453,0.29832 0.269714,0.29628 0.269714,0.8071 z m -0.375965,-0.11034 q -0.0041,-0.30853 -0.173679,-0.49243 -0.167549,-0.18389 -0.445436,-0.18389 -0.314666,0 -0.504692,0.17776 -0.187982,0.17777 -0.216588,0.50061 z" />
        <path
           id="path5606"
           style="font-style:normal;font-variant:normal;font-weight:normal;font-stretch:normal;font-size:4.18464994px;font-family:'DejaVu Sans';-inkscape-font-specification:'DejaVu Sans, Normal';font-variant-ligatures:normal;font-variant-caps:normal;font-variant-numeric:normal;font-feature-settings:normal;text-align:start;writing-mode:lr-tb;text-anchor:start;stroke-width:0.10461817"
           d="m -34.098877,194.36007 q 0.140987,-0.25337 0.337142,-0.37392 0.196156,-0.12056 0.461783,-0.12056 0.357575,0 0.551687,0.25133 0.194112,0.24928 0.194112,0.71106 v 1.38126 h -0.378008 v -1.369 q 0,-0.32897 -0.116467,-0.48834 -0.116467,-0.15938 -0.355532,-0.15938 -0.29219,0 -0.461782,0.19411 -0.169593,0.19411 -0.169593,0.52921 v 1.2934 h -0.378008 v -1.369 q 0,-0.33101 -0.116467,-0.48834 -0.116468,-0.15938 -0.359619,-0.15938 -0.288103,0 -0.457696,0.19616 -0.169593,0.19411 -0.169593,0.52716 v 1.2934 h -0.378008 v -2.28848 h 0.378008 v 0.35554 q 0.128727,-0.21046 0.308537,-0.31058 0.179809,-0.10013 0.427046,-0.10013 0.249281,0 0.422961,0.12669 0.175722,0.12668 0.259497,0.36779 z" />
        <path
           id="path5608"
           style="font-style:normal;font-variant:normal;font-weight:normal;font-stretch:normal;font-size:4.18464994px;font-family:'DejaVu Sans';-inkscape-font-specification:'DejaVu Sans, Normal';font-variant-ligatures:normal;font-variant-caps:normal;font-variant-numeric:normal;font-feature-settings:normal;text-align:start;writing-mode:lr-tb;text-anchor:start;stroke-width:0.10461817"
           d="m -30.915438,194.18435 q -0.302406,0 -0.478129,0.23702 -0.175722,0.23498 -0.175722,0.64568 0,0.4107 0.173679,0.64772 0.175723,0.23498 0.480172,0.23498 0.300363,0 0.476086,-0.23702 0.175723,-0.23703 0.175723,-0.64568 0,-0.40662 -0.175723,-0.64364 -0.175723,-0.23906 -0.476086,-0.23906 z m 0,-0.31876 q 0.490389,0 0.770319,0.31876 0.27993,0.31875 0.27993,0.8827 0,0.5619 -0.27993,0.8827 -0.27993,0.31875 -0.770319,0.31875 -0.492432,0 -0.772362,-0.31875 -0.277887,-0.3208 -0.277887,-0.8827 0,-0.56395 0.277887,-0.8827 0.27993,-0.31876 0.772362,-0.31876 z" />
        <path
           id="path5610"
           style="font-style:normal;font-variant:normal;font-weight:normal;font-stretch:normal;font-size:4.18464994px;font-family:'DejaVu Sans';-inkscape-font-specification:'DejaVu Sans, Normal';font-variant-ligatures:normal;font-variant-caps:normal;font-variant-numeric:normal;font-feature-settings:normal;text-align:start;writing-mode:lr-tb;text-anchor:start;stroke-width:0.10461817"
           d="m -29.513743,193.92076 h 0.39844 l 0.715151,1.92069 0.71515,-1.92069 h 0.39844 l -0.85818,2.28848 h -0.510821 z" />
        <path
           id="path5612"
           style="font-style:normal;font-variant:normal;font-weight:normal;font-stretch:normal;font-size:4.18464994px;font-family:'DejaVu Sans';-inkscape-font-specification:'DejaVu Sans, Normal';font-variant-ligatures:normal;font-variant-caps:normal;font-variant-numeric:normal;font-feature-settings:normal;text-align:start;writing-mode:lr-tb;text-anchor:start;stroke-width:0.10461817"
           d="m -24.810098,194.97101 v 0.1839 h -1.72862 q 0.02452,0.38822 0.232934,0.59255 0.210459,0.20229 0.58438,0.20229 0.216588,0 0.418874,-0.0531 0.204328,-0.0531 0.40457,-0.15938 v 0.35554 q -0.202285,0.0858 -0.414787,0.13077 -0.212501,0.045 -0.431133,0.045 -0.547601,0 -0.868397,-0.31875 -0.318752,-0.31876 -0.318752,-0.86227 0,-0.5619 0.302406,-0.89087 0.30445,-0.33102 0.819358,-0.33102 0.461783,0 0.729453,0.29832 0.269714,0.29628 0.269714,0.8071 z m -0.375965,-0.11034 q -0.0041,-0.30853 -0.173679,-0.49243 -0.16755,-0.18389 -0.445437,-0.18389 -0.314666,0 -0.504691,0.17776 -0.187983,0.17777 -0.216589,0.50061 z" />
        <path
           id="path5614"
           style="font-style:normal;font-variant:normal;font-weight:normal;font-stretch:normal;font-size:4.18464994px;font-family:'DejaVu Sans';-inkscape-font-specification:'DejaVu Sans, Normal';font-variant-ligatures:normal;font-variant-caps:normal;font-variant-numeric:normal;font-feature-settings:normal;text-align:start;writing-mode:lr-tb;text-anchor:start;stroke-width:0.10461817"
           d="m -22.488925,193.271 v 0.64976 h 0.774405 v 0.29219 h -0.774405 v 1.24232 q 0,0.27993 0.0756,0.35962 0.07765,0.0797 0.312623,0.0797 h 0.386181 v 0.31466 h -0.386181 q -0.43522,0 -0.600726,-0.16142 -0.165506,-0.16346 -0.165506,-0.59255 v -1.24232 h -0.275844 v -0.29219 h 0.275844 V 193.271 Z" />
        <path
           id="path5616"
           style="font-style:normal;font-variant:normal;font-weight:normal;font-stretch:normal;font-size:4.18464994px;font-family:'DejaVu Sans';-inkscape-font-specification:'DejaVu Sans, Normal';font-variant-ligatures:normal;font-variant-caps:normal;font-variant-numeric:normal;font-feature-settings:normal;text-align:start;writing-mode:lr-tb;text-anchor:start;stroke-width:0.10461817"
           d="m -19.315703,194.82798 v 1.38126 h -0.375964 v -1.369 q 0,-0.32488 -0.126684,-0.4863 -0.126684,-0.16142 -0.380051,-0.16142 -0.30445,0 -0.480172,0.19411 -0.175723,0.19411 -0.175723,0.52921 v 1.2934 h -0.378008 v -3.17935 h 0.378008 v 1.24641 q 0.134857,-0.20638 0.316709,-0.30854 0.183896,-0.10217 0.422961,-0.10217 0.394354,0 0.596639,0.2452 0.202285,0.24315 0.202285,0.71719 z" />
        <path
           id="path5618"
           style="font-style:normal;font-variant:normal;font-weight:normal;font-stretch:normal;font-size:4.18464994px;font-family:'DejaVu Sans';-inkscape-font-specification:'DejaVu Sans, Normal';font-variant-ligatures:normal;font-variant-caps:normal;font-variant-numeric:normal;font-feature-settings:normal;text-align:start;writing-mode:lr-tb;text-anchor:start;stroke-width:0.10461817"
           d="m -18.561729,193.92076 h 0.375965 v 2.28848 h -0.375965 z m 0,-0.89087 h 0.375965 v 0.47609 h -0.375965 z" />
        <path
           id="path5620"
           style="font-style:normal;font-variant:normal;font-weight:normal;font-stretch:normal;font-size:4.18464994px;font-family:'DejaVu Sans';-inkscape-font-specification:'DejaVu Sans, Normal';font-variant-ligatures:normal;font-variant-caps:normal;font-variant-numeric:normal;font-feature-settings:normal;text-align:start;writing-mode:lr-tb;text-anchor:start;stroke-width:0.10461817"
           d="m -15.942237,193.98819 v 0.35553 q -0.159377,-0.0817 -0.331013,-0.12259 -0.171636,-0.0409 -0.355532,-0.0409 -0.27993,0 -0.420916,0.0858 -0.138944,0.0858 -0.138944,0.25745 0,0.13077 0.100121,0.20637 0.100121,0.0736 0.402527,0.14099 l 0.128727,0.0286 q 0.400485,0.0858 0.568034,0.24315 0.169593,0.15529 0.169593,0.43522 0,0.31875 -0.253368,0.50469 -0.251324,0.18594 -0.692674,0.18594 -0.183895,0 -0.384137,-0.0368 -0.198199,-0.0347 -0.418874,-0.10625 v -0.38823 q 0.208415,0.1083 0.4107,0.16347 0.202286,0.0531 0.400484,0.0531 0.265628,0 0.408658,-0.0899 0.14303,-0.0919 0.14303,-0.25746 0,-0.15324 -0.104208,-0.23497 -0.102164,-0.0817 -0.451566,-0.15734 l -0.13077,-0.0306 q -0.349402,-0.0736 -0.504692,-0.22476 -0.15529,-0.15324 -0.15529,-0.41887 0,-0.32284 0.228848,-0.49856 0.228848,-0.17573 0.649765,-0.17573 0.208415,0 0.392311,0.0307 0.183896,0.0306 0.339186,0.0919 z" />
      </g>
      <path
         style="display:inline;opacity:0.98999999;fill:none;stroke:#000000;stroke-width:0.26458332px;stroke-linecap:butt;stroke-linejoin:miter;stroke-opacity:1"
         d="m 27.965368,196.77142 c 0,0 1.469982,1.9377 1.603617,3.94223"
         id="path6819" />
      <path
         style="display:inline;opacity:0.98999999;fill:none;stroke:#000000;stroke-width:0.26458332px;stroke-linecap:butt;stroke-linejoin:miter;stroke-opacity:1"
         d="m 28.099002,199.84502 1.469983,0.86863 0.668173,-1.80407"
         id="path6821" />
      <g
         id="text13-2-1-87-92-2-4-44-3-9-41-6-4"
         style="font-style:normal;font-variant:normal;font-weight:normal;font-stretch:normal;font-size:4.18464994px;line-height:1.25;font-family:'DejaVu Sans';-inkscape-font-specification:'DejaVu Sans, Normal';font-variant-ligatures:normal;font-variant-caps:normal;font-variant-numeric:normal;font-feature-settings:normal;text-align:start;letter-spacing:0px;word-spacing:0px;writing-mode:lr-tb;text-anchor:start;display:inline;opacity:0.98999999;fill:#000000;fill-opacity:1;stroke:none;stroke-width:0.10461817"
         aria-label="replace this with this">
        <path
           id="path5623"
           style="font-style:normal;font-variant:normal;font-weight:normal;font-stretch:normal;font-size:4.18464994px;font-family:'DejaVu Sans';-inkscape-font-specification:'DejaVu Sans, Normal';font-variant-ligatures:normal;font-variant-caps:normal;font-variant-numeric:normal;font-feature-settings:normal;text-align:start;writing-mode:lr-tb;text-anchor:start;stroke-width:0.10461817"
           d="m 35.857231,193.46603 q -0.06334,-0.0368 -0.138944,-0.0531 -0.07356,-0.0184 -0.163463,-0.0184 -0.318752,0 -0.490389,0.20842 -0.169592,0.20637 -0.169592,0.59459 v 1.20554 h -0.378008 v -2.28848 h 0.378008 v 0.35553 q 0.11851,-0.20841 0.308536,-0.30853 0.190026,-0.10217 0.461783,-0.10217 0.03882,0 0.08582,0.006 0.047,0.004 0.104207,0.0143 z" />
        <path
           id="path5625"
           style="font-style:normal;font-variant:normal;font-weight:normal;font-stretch:normal;font-size:4.18464994px;font-family:'DejaVu Sans';-inkscape-font-specification:'DejaVu Sans, Normal';font-variant-ligatures:normal;font-variant-caps:normal;font-variant-numeric:normal;font-feature-settings:normal;text-align:start;writing-mode:lr-tb;text-anchor:start;stroke-width:0.10461817"
           d="m 38.123235,194.16483 v 0.1839 h -1.72862 q 0.02452,0.38822 0.232934,0.59255 0.210459,0.20228 0.58438,0.20228 0.216589,0 0.418874,-0.0531 0.204328,-0.0531 0.40457,-0.15938 v 0.35553 q -0.202285,0.0858 -0.414787,0.13077 -0.212501,0.045 -0.431133,0.045 -0.547601,0 -0.868397,-0.31876 -0.318752,-0.31875 -0.318752,-0.86226 0,-0.56191 0.302406,-0.89088 0.30445,-0.33101 0.819358,-0.33101 0.461783,0 0.729453,0.29832 0.269714,0.29628 0.269714,0.8071 z m -0.375965,-0.11034 q -0.0041,-0.30853 -0.173679,-0.49243 -0.16755,-0.1839 -0.445437,-0.1839 -0.314666,0 -0.504691,0.17777 -0.187983,0.17777 -0.216589,0.50061 z" />
        <path
           id="path5627"
           style="font-style:normal;font-variant:normal;font-weight:normal;font-stretch:normal;font-size:4.18464994px;font-family:'DejaVu Sans';-inkscape-font-specification:'DejaVu Sans, Normal';font-variant-ligatures:normal;font-variant-caps:normal;font-variant-numeric:normal;font-feature-settings:normal;text-align:start;writing-mode:lr-tb;text-anchor:start;stroke-width:0.10461817"
           d="m 39.104012,195.05979 v 1.21371 h -0.378008 v -3.15892 h 0.378008 v 0.34736 q 0.118511,-0.20433 0.29832,-0.30241 0.181852,-0.10012 0.433177,-0.10012 0.41683,0 0.676327,0.33101 0.261541,0.33102 0.261541,0.87044 0,0.53943 -0.261541,0.87044 -0.259497,0.33102 -0.676327,0.33102 -0.251325,0 -0.433177,-0.0981 -0.179809,-0.10012 -0.29832,-0.30445 z m 1.279097,-0.79893 q 0,-0.41478 -0.171636,-0.64976 -0.169593,-0.23702 -0.467912,-0.23702 -0.29832,0 -0.469956,0.23702 -0.169593,0.23498 -0.169593,0.64976 0,0.41479 0.169593,0.65181 0.171636,0.23498 0.469956,0.23498 0.298319,0 0.467912,-0.23498 0.171636,-0.23702 0.171636,-0.65181 z" />
        <path
           id="path5629"
           style="font-style:normal;font-variant:normal;font-weight:normal;font-stretch:normal;font-size:4.18464994px;font-family:'DejaVu Sans';-inkscape-font-specification:'DejaVu Sans, Normal';font-variant-ligatures:normal;font-variant-caps:normal;font-variant-numeric:normal;font-feature-settings:normal;text-align:start;writing-mode:lr-tb;text-anchor:start;stroke-width:0.10461817"
           d="m 41.396579,192.22371 h 0.375965 v 3.17935 h -0.375965 z" />
        <path
           id="path5631"
           style="font-style:normal;font-variant:normal;font-weight:normal;font-stretch:normal;font-size:4.18464994px;font-family:'DejaVu Sans';-inkscape-font-specification:'DejaVu Sans, Normal';font-variant-ligatures:normal;font-variant-caps:normal;font-variant-numeric:normal;font-feature-settings:normal;text-align:start;writing-mode:lr-tb;text-anchor:start;stroke-width:0.10461817"
           d="m 43.597198,194.25269 q -0.455653,0 -0.631375,0.10421 -0.175723,0.10421 -0.175723,0.35553 0,0.20024 0.13077,0.31875 0.132814,0.11647 0.359619,0.11647 0.312623,0 0.500605,-0.22067 0.190025,-0.22272 0.190025,-0.59051 v -0.0838 z m 0.749886,-0.15529 v 1.30566 h -0.375965 v -0.34736 q -0.128727,0.20842 -0.320795,0.30854 -0.192069,0.0981 -0.469956,0.0981 -0.351445,0 -0.559861,-0.19616 -0.206372,-0.1982 -0.206372,-0.52921 0,-0.38618 0.257455,-0.58234 0.259497,-0.19615 0.772362,-0.19615 h 0.527167 v -0.0368 q 0,-0.2595 -0.171636,-0.40049 -0.169592,-0.14303 -0.478128,-0.14303 -0.196156,0 -0.382095,0.047 -0.185939,0.047 -0.357575,0.14099 v -0.34736 q 0.206372,-0.0797 0.400484,-0.11851 0.194112,-0.0409 0.378008,-0.0409 0.496518,0 0.741713,0.25746 0.245194,0.25745 0.245194,0.78053 z" />
        <path
           id="path5633"
           style="font-style:normal;font-variant:normal;font-weight:normal;font-stretch:normal;font-size:4.18464994px;font-family:'DejaVu Sans';-inkscape-font-specification:'DejaVu Sans, Normal';font-variant-ligatures:normal;font-variant-caps:normal;font-variant-numeric:normal;font-feature-settings:normal;text-align:start;writing-mode:lr-tb;text-anchor:start;stroke-width:0.10461817"
           d="m 46.770421,193.20244 v 0.35145 q -0.159376,-0.0879 -0.320796,-0.13077 -0.159376,-0.045 -0.322839,-0.045 -0.365748,0 -0.568033,0.23294 -0.202286,0.23089 -0.202286,0.64976 0,0.41888 0.202286,0.65181 0.202285,0.23089 0.568033,0.23089 0.163463,0 0.322839,-0.0429 0.16142,-0.045 0.320796,-0.13281 v 0.34736 q -0.157333,0.0736 -0.326926,0.11034 -0.167549,0.0368 -0.357575,0.0368 -0.516951,0 -0.821401,-0.32489 -0.304449,-0.32488 -0.304449,-0.87657 0,-0.55986 0.306493,-0.88065 0.308536,-0.3208 0.843877,-0.3208 0.173679,0 0.339185,0.0368 0.165507,0.0347 0.320796,0.10625 z" />
        <path
           id="path5635"
           style="font-style:normal;font-variant:normal;font-weight:normal;font-stretch:normal;font-size:4.18464994px;font-family:'DejaVu Sans';-inkscape-font-specification:'DejaVu Sans, Normal';font-variant-ligatures:normal;font-variant-caps:normal;font-variant-numeric:normal;font-feature-settings:normal;text-align:start;writing-mode:lr-tb;text-anchor:start;stroke-width:0.10461817"
           d="m 49.385827,194.16483 v 0.1839 h -1.72862 q 0.02452,0.38822 0.232935,0.59255 0.210459,0.20228 0.58438,0.20228 0.216588,0 0.418874,-0.0531 0.204328,-0.0531 0.40457,-0.15938 v 0.35553 q -0.202285,0.0858 -0.414787,0.13077 -0.212502,0.045 -0.431133,0.045 -0.547601,0 -0.868397,-0.31876 -0.318753,-0.31875 -0.318753,-0.86226 0,-0.56191 0.302407,-0.89088 0.304449,-0.33101 0.819358,-0.33101 0.461782,0 0.729453,0.29832 0.269713,0.29628 0.269713,0.8071 z m -0.375964,-0.11034 q -0.0041,-0.30853 -0.173679,-0.49243 -0.16755,-0.1839 -0.445437,-0.1839 -0.314666,0 -0.504692,0.17777 -0.187982,0.17777 -0.216588,0.50061 z" />
        <path
           id="path5637"
           style="font-style:normal;font-variant:normal;font-weight:normal;font-stretch:normal;font-size:4.18464994px;font-family:'DejaVu Sans';-inkscape-font-specification:'DejaVu Sans, Normal';font-variant-ligatures:normal;font-variant-caps:normal;font-variant-numeric:normal;font-feature-settings:normal;text-align:start;writing-mode:lr-tb;text-anchor:start;stroke-width:0.10461817"
           d="m 51.707001,192.46482 v 0.64976 h 0.774406 v 0.29219 h -0.774406 v 1.24232 q 0,0.27993 0.0756,0.35962 0.07764,0.0797 0.312623,0.0797 h 0.386181 v 0.31467 h -0.386181 q -0.43522,0 -0.600726,-0.16142 -0.165506,-0.16346 -0.165506,-0.59255 v -1.24232 H 51.05315 v -0.29219 h 0.275844 v -0.64976 z" />
        <path
           id="path5639"
           style="font-style:normal;font-variant:normal;font-weight:normal;font-stretch:normal;font-size:4.18464994px;font-family:'DejaVu Sans';-inkscape-font-specification:'DejaVu Sans, Normal';font-variant-ligatures:normal;font-variant-caps:normal;font-variant-numeric:normal;font-feature-settings:normal;text-align:start;writing-mode:lr-tb;text-anchor:start;stroke-width:0.10461817"
           d="m 54.880224,194.0218 v 1.38126 h -0.375965 v -1.369 q 0,-0.32488 -0.126683,-0.4863 -0.126684,-0.16142 -0.380052,-0.16142 -0.304449,0 -0.480172,0.19411 -0.175722,0.19411 -0.175722,0.52921 v 1.2934 h -0.378008 v -3.17935 h 0.378008 v 1.2464 q 0.134857,-0.20637 0.316709,-0.30853 0.183896,-0.10217 0.42296,-0.10217 0.394354,0 0.59664,0.2452 0.202285,0.24315 0.202285,0.71719 z" />
        <path
           id="path5641"
           style="font-style:normal;font-variant:normal;font-weight:normal;font-stretch:normal;font-size:4.18464994px;font-family:'DejaVu Sans';-inkscape-font-specification:'DejaVu Sans, Normal';font-variant-ligatures:normal;font-variant-caps:normal;font-variant-numeric:normal;font-feature-settings:normal;text-align:start;writing-mode:lr-tb;text-anchor:start;stroke-width:0.10461817"
           d="m 55.634196,193.11458 h 0.375964 v 2.28848 h -0.375964 z m 0,-0.89087 h 0.375964 v 0.47608 h -0.375964 z" />
        <path
           id="path5643"
           style="font-style:normal;font-variant:normal;font-weight:normal;font-stretch:normal;font-size:4.18464994px;font-family:'DejaVu Sans';-inkscape-font-specification:'DejaVu Sans, Normal';font-variant-ligatures:normal;font-variant-caps:normal;font-variant-numeric:normal;font-feature-settings:normal;text-align:start;writing-mode:lr-tb;text-anchor:start;stroke-width:0.10461817"
           d="m 58.253689,193.18201 v 0.35553 q -0.159376,-0.0817 -0.331012,-0.1226 -0.171636,-0.0409 -0.355532,-0.0409 -0.27993,0 -0.420917,0.0858 -0.138943,0.0858 -0.138943,0.25745 0,0.13077 0.100121,0.20637 0.100121,0.0736 0.402527,0.14099 l 0.128727,0.0286 q 0.400484,0.0858 0.568034,0.24316 0.169592,0.15529 0.169592,0.43522 0,0.31875 -0.253367,0.50469 -0.251324,0.18594 -0.692674,0.18594 -0.183896,0 -0.384138,-0.0368 -0.198199,-0.0347 -0.418873,-0.10625 v -0.38823 q 0.208415,0.1083 0.4107,0.16346 0.202285,0.0531 0.400484,0.0531 0.265627,0 0.408657,-0.0899 0.14303,-0.0919 0.14303,-0.25746 0,-0.15324 -0.104207,-0.23498 -0.102165,-0.0817 -0.451566,-0.15733 l -0.130771,-0.0307 q -0.349402,-0.0736 -0.504691,-0.22476 -0.15529,-0.15325 -0.15529,-0.41887 0,-0.32284 0.228848,-0.49857 0.228848,-0.17572 0.649765,-0.17572 0.208415,0 0.392311,0.0306 0.183896,0.0307 0.339185,0.0919 z" />
        <path
           id="path5645"
           style="font-style:normal;font-variant:normal;font-weight:normal;font-stretch:normal;font-size:4.18464994px;font-family:'DejaVu Sans';-inkscape-font-specification:'DejaVu Sans, Normal';font-variant-ligatures:normal;font-variant-caps:normal;font-variant-numeric:normal;font-feature-settings:normal;text-align:start;writing-mode:lr-tb;text-anchor:start;stroke-width:0.10461817"
           d="m 60.090603,193.11458 h 0.375965 l 0.469956,1.78583 0.467912,-1.78583 h 0.443393 l 0.469956,1.78583 0.467913,-1.78583 h 0.375964 l -0.598682,2.28848 h -0.443394 l -0.492431,-1.87574 -0.494476,1.87574 h -0.443393 z" />
        <path
           id="path5647"
           style="font-style:normal;font-variant:normal;font-weight:normal;font-stretch:normal;font-size:4.18464994px;font-family:'DejaVu Sans';-inkscape-font-specification:'DejaVu Sans, Normal';font-variant-ligatures:normal;font-variant-caps:normal;font-variant-numeric:normal;font-feature-settings:normal;text-align:start;writing-mode:lr-tb;text-anchor:start;stroke-width:0.10461817"
           d="m 63.733782,193.11458 h 0.375965 v 2.28848 h -0.375965 z m 0,-0.89087 h 0.375965 v 0.47608 h -0.375965 z" />
        <path
           id="path5649"
           style="font-style:normal;font-variant:normal;font-weight:normal;font-stretch:normal;font-size:4.18464994px;font-family:'DejaVu Sans';-inkscape-font-specification:'DejaVu Sans, Normal';font-variant-ligatures:normal;font-variant-caps:normal;font-variant-numeric:normal;font-feature-settings:normal;text-align:start;writing-mode:lr-tb;text-anchor:start;stroke-width:0.10461817"
           d="m 65.266248,192.46482 v 0.64976 h 0.774405 v 0.29219 h -0.774405 v 1.24232 q 0,0.27993 0.0756,0.35962 0.07765,0.0797 0.312623,0.0797 h 0.386181 v 0.31467 h -0.386181 q -0.43522,0 -0.600726,-0.16142 -0.165506,-0.16346 -0.165506,-0.59255 v -1.24232 h -0.275844 v -0.29219 h 0.275844 v -0.64976 z" />
        <path
           id="path5651"
           style="font-style:normal;font-variant:normal;font-weight:normal;font-stretch:normal;font-size:4.18464994px;font-family:'DejaVu Sans';-inkscape-font-specification:'DejaVu Sans, Normal';font-variant-ligatures:normal;font-variant-caps:normal;font-variant-numeric:normal;font-feature-settings:normal;text-align:start;writing-mode:lr-tb;text-anchor:start;stroke-width:0.10461817"
           d="m 68.439472,194.0218 v 1.38126 h -0.375965 v -1.369 q 0,-0.32488 -0.126683,-0.4863 -0.126684,-0.16142 -0.380052,-0.16142 -0.304449,0 -0.480172,0.19411 -0.175722,0.19411 -0.175722,0.52921 v 1.2934 H 66.52287 v -3.17935 h 0.378008 v 1.2464 q 0.134856,-0.20637 0.316709,-0.30853 0.183896,-0.10217 0.42296,-0.10217 0.394354,0 0.59664,0.2452 0.202285,0.24315 0.202285,0.71719 z" />
        <path
           id="path5653"
           style="font-style:normal;font-variant:normal;font-weight:normal;font-stretch:normal;font-size:4.18464994px;font-family:'DejaVu Sans';-inkscape-font-specification:'DejaVu Sans, Normal';font-variant-ligatures:normal;font-variant-caps:normal;font-variant-numeric:normal;font-feature-settings:normal;text-align:start;writing-mode:lr-tb;text-anchor:start;stroke-width:0.10461817"
           d="m 70.897542,192.46482 v 0.64976 h 0.774405 v 0.29219 h -0.774405 v 1.24232 q 0,0.27993 0.0756,0.35962 0.07765,0.0797 0.312623,0.0797 h 0.386181 v 0.31467 h -0.386181 q -0.43522,0 -0.600726,-0.16142 -0.165506,-0.16346 -0.165506,-0.59255 v -1.24232 H 70.24369 v -0.29219 h 0.275844 v -0.64976 z" />
        <path
           id="path5655"
           style="font-style:normal;font-variant:normal;font-weight:normal;font-stretch:normal;font-size:4.18464994px;font-family:'DejaVu Sans';-inkscape-font-specification:'DejaVu Sans, Normal';font-variant-ligatures:normal;font-variant-caps:normal;font-variant-numeric:normal;font-feature-settings:normal;text-align:start;writing-mode:lr-tb;text-anchor:start;stroke-width:0.10461817"
           d="m 74.070766,194.0218 v 1.38126 h -0.375964 v -1.369 q 0,-0.32488 -0.126684,-0.4863 -0.126684,-0.16142 -0.380051,-0.16142 -0.30445,0 -0.480173,0.19411 -0.175722,0.19411 -0.175722,0.52921 v 1.2934 h -0.378008 v -3.17935 h 0.378008 v 1.2464 q 0.134857,-0.20637 0.316709,-0.30853 0.183896,-0.10217 0.42296,-0.10217 0.394355,0 0.59664,0.2452 0.202285,0.24315 0.202285,0.71719 z" />
        <path
           id="path5657"
           style="font-style:normal;font-variant:normal;font-weight:normal;font-stretch:normal;font-size:4.18464994px;font-family:'DejaVu Sans';-inkscape-font-specification:'DejaVu Sans, Normal';font-variant-ligatures:normal;font-variant-caps:normal;font-variant-numeric:normal;font-feature-settings:normal;text-align:start;writing-mode:lr-tb;text-anchor:start;stroke-width:0.10461817"
           d="m 74.82474,193.11458 h 0.375964 v 2.28848 H 74.82474 Z m 0,-0.89087 h 0.375964 v 0.47608 H 74.82474 Z" />
        <path
           id="path5659"
           style="font-style:normal;font-variant:normal;font-weight:normal;font-stretch:normal;font-size:4.18464994px;font-family:'DejaVu Sans';-inkscape-font-specification:'DejaVu Sans, Normal';font-variant-ligatures:normal;font-variant-caps:normal;font-variant-numeric:normal;font-feature-settings:normal;text-align:start;writing-mode:lr-tb;text-anchor:start;stroke-width:0.10461817"
           d="m 77.444233,193.18201 v 0.35553 q -0.159376,-0.0817 -0.331012,-0.1226 -0.171636,-0.0409 -0.355532,-0.0409 -0.27993,0 -0.420917,0.0858 -0.138943,0.0858 -0.138943,0.25745 0,0.13077 0.100121,0.20637 0.100121,0.0736 0.402527,0.14099 l 0.128727,0.0286 q 0.400484,0.0858 0.568034,0.24316 0.169593,0.15529 0.169593,0.43522 0,0.31875 -0.253368,0.50469 -0.251324,0.18594 -0.692674,0.18594 -0.183896,0 -0.384138,-0.0368 -0.198198,-0.0347 -0.418873,-0.10625 v -0.38823 q 0.208415,0.1083 0.4107,0.16346 0.202285,0.0531 0.400484,0.0531 0.265627,0 0.408657,-0.0899 0.14303,-0.0919 0.14303,-0.25746 0,-0.15324 -0.104207,-0.23498 -0.102164,-0.0817 -0.451566,-0.15733 l -0.130771,-0.0307 q -0.349402,-0.0736 -0.504691,-0.22476 -0.15529,-0.15325 -0.15529,-0.41887 0,-0.32284 0.228848,-0.49857 0.228848,-0.17572 0.649765,-0.17572 0.208415,0 0.392311,0.0306 0.183896,0.0307 0.339185,0.0919 z" />
      </g>
      <path
         style="display:inline;opacity:0.98999999;fill:none;stroke:#000000;stroke-width:0.26458332px;stroke-linecap:butt;stroke-linejoin:miter;stroke-opacity:1"
         d="m 51.795033,196.24286 -5.953125,4.91369"
         id="path6877" />
      <path
         style="display:inline;opacity:0.98999999;fill:none;stroke:#000000;stroke-width:0.26458332px;stroke-linecap:butt;stroke-linejoin:miter;stroke-opacity:1"
         d="m 45.794661,198.93594 0.04725,2.22061 2.456847,-0.51972"
         id="path6879" />
      <path
         style="display:inline;opacity:0.98999999;fill:none;stroke:#000000;stroke-width:0.26458332px;stroke-linecap:butt;stroke-linejoin:miter;stroke-opacity:1"
         d="m 70.410362,196.52634 -12.331475,4.48847"
         id="path6881" />
      <path
         style="display:inline;opacity:0.98999999;fill:none;stroke:#000000;stroke-width:0.26458332px;stroke-linecap:butt;stroke-linejoin:miter;stroke-opacity:1"
         d="m 58.693099,199.03043 -0.614212,1.98438 2.173364,0.8032"
         id="path6883" />
    </g>
  </g>
</svg>
